<svg width="32" height="33" viewBox="0 0 32 33" fill="none" xmlns="http://www.w3.org/2000/svg">
<path d="M11.4914 15.7319L20.5847 24.8209C20.938 25.1999 21.1304 25.7011 21.1212 26.219C21.1121 26.7368 20.9022 27.231 20.5357 27.5972C20.1693 27.9635 19.6749 28.1733 19.1568 28.1824C18.6387 28.1916 18.1372 27.9993 17.7581 27.6462L8.42474 18.3173L7.89141 17.7843L7.25141 17.1446C6.87688 16.7697 6.6665 16.2617 6.6665 15.7319C6.66651 15.2022 6.87688 14.6941 7.25141 14.3192L17.7581 3.81759C18.1372 3.46447 18.6387 3.27224 19.1568 3.28138C19.6749 3.29052 20.1693 3.50031 20.5357 3.86657C20.9022 4.23283 21.1121 4.72696 21.1212 5.24485C21.1304 5.76273 20.938 6.26395 20.5847 6.64291L11.4914 15.7319Z" fill="#3B3B3B" fill-opacity="0.98"/>
</svg>
