<svg width="32" height="33" viewBox="0 0 32 33" fill="none" xmlns="http://www.w3.org/2000/svg">
<path d="M20.5083 15.7319L11.415 24.8209C11.0617 25.1999 10.8694 25.7011 10.8785 26.219C10.8877 26.7368 11.0976 27.231 11.464 27.5972C11.8305 27.9635 12.3248 28.1733 12.843 28.1824C13.3611 28.1916 13.8625 27.9993 14.2417 27.6462L23.575 18.3173L24.1083 17.7843L24.7483 17.1446C25.1229 16.7697 25.3333 16.2617 25.3333 15.7319C25.3333 15.2022 25.1229 14.6941 24.7483 14.3192L14.2417 3.81759C13.8625 3.46448 13.3611 3.27224 12.843 3.28138C12.3248 3.29051 11.8305 3.50031 11.464 3.86657C11.0976 4.23283 10.8877 4.72696 10.8785 5.24485C10.8694 5.76274 11.0617 6.26395 11.415 6.64291L20.5083 15.7319Z" fill="#3B3B3B" fill-opacity="0.98"/>
</svg>
