<svg width="20" height="20" viewBox="0 0 20 20" fill="none" xmlns="http://www.w3.org/2000/svg">
<path d="M9 13.0008V16.0008C9 16.5538 8.552 17.0008 8 17.0008C7.448 17.0008 7 16.5538 7 16.0008V13.0008C7 12.4478 7.448 12.0008 8 12.0008C8.552 12.0008 9 12.4478 9 13.0008ZM12 12.0008C11.448 12.0008 11 12.4478 11 13.0008V16.0008C11 16.5538 11.448 17.0008 12 17.0008C12.552 17.0008 13 16.5538 13 16.0008V13.0008C13 12.4478 12.552 12.0008 12 12.0008ZM18.429 10.6218L17.678 16.5068C17.424 18.4978 15.718 19.9999 13.71 19.9999H6.31201C4.31101 19.9999 2.60601 18.5039 2.34601 16.5199L1.573 10.6228C0.640998 10.1128 0 9.13584 0 8.00084C0 6.34684 1.346 5.00084 3 5.00084H4.43399L7.14301 0.485823C7.42701 0.0118227 8.04001 -0.141195 8.51501 0.142805C8.98901 0.426805 9.142 1.04088 8.858 1.51488L6.767 4.99986H13.235L11.144 1.51488C10.86 1.04088 11.013 0.426805 11.487 0.142805C11.961 -0.141195 12.575 0.0118227 12.859 0.485823L15.568 5.00084H17C18.654 5.00084 20 6.34684 20 8.00084C20 9.13484 19.36 10.1118 18.429 10.6218ZM2 8.00084C2 8.55284 2.449 9.00084 3 9.00084H17C17.551 9.00084 18 8.55284 18 8.00084C18 7.44884 17.551 7.00084 17 7.00084H3C2.449 7.00084 2 7.44884 2 8.00084ZM16.364 11.0008H3.64001L4.32999 16.2608C4.45899 17.2528 5.31201 18.0008 6.31201 18.0008H13.71C14.714 18.0008 15.567 17.2499 15.693 16.2549L16.364 11.0008Z" fill="#fff"/>
</svg>
